<?xml version="1.0" encoding="utf-8"?>
<!-- Generator: Adobe Illustrator 24.0.1, SVG Export Plug-In . SVG Version: 6.00 Build 0)  -->
<svg version="1.1" id="Layer_1" xmlns="http://www.w3.org/2000/svg" xmlns:xlink="http://www.w3.org/1999/xlink" x="0px" y="0px"
	 viewBox="0 0 100 100" style="enable-background:new 0 0 100 100;" xml:space="preserve">
<style type="text/css">
	.st0{fill:#FFFFFF;}
	.st1{fill:#3FA9F5;}
</style>
<g>
	<circle class="st0" cx="50.25" cy="46.75" r="9.76"/>
	<path class="st1" d="M50.25,37.23c5.25,0,9.52,4.27,9.52,9.52s-4.27,9.52-9.52,9.52s-9.52-4.27-9.52-9.52S45,37.23,50.25,37.23
		 M50.25,36.75c-5.52,0-10,4.48-10,10s4.48,10,10,10s10-4.48,10-10S55.77,36.75,50.25,36.75L50.25,36.75z"/>
</g>
<g>
	<circle class="st1" cx="50.25" cy="46.75" r="7.14"/>
	<path class="st1" d="M50.25,39.85c3.81,0,6.9,3.1,6.9,6.9s-3.1,6.9-6.9,6.9s-6.9-3.1-6.9-6.9S46.44,39.85,50.25,39.85 M50.25,39.37
		c-4.08,0-7.38,3.3-7.38,7.38s3.3,7.38,7.38,7.38s7.38-3.3,7.38-7.38S54.33,39.37,50.25,39.37L50.25,39.37z"/>
</g>
</svg>
