<?xml version="1.0" encoding="utf-8"?>
<!-- Generator: Adobe Illustrator 24.0.1, SVG Export Plug-In . SVG Version: 6.00 Build 0)  -->
<svg width = "40" height = "40" version="1.1" id="Layer_1" xmlns="http://www.w3.org/2000/svg" xmlns:xlink="http://www.w3.org/1999/xlink" x="0px" y="0px"
	 viewBox="0 0 100 100" style="enable-background:new 0 0 100 100;" xml:space="preserve">
<style type="text/css">
	.st0{fill:#FFFFFF;}
	.st1{fill:#3FA9F5;}
</style>
<g>
	<circle class="st0" cx="50" cy="50" r="48.8"/>
	<path class="st1" d="M50,2.4c26.2,0,47.6,21.4,47.6,47.6S76.2,97.6,50,97.6S2.4,76.2,2.4,50S23.8,2.4,50,2.4 M50,0
		C22.4,0,0,22.4,0,50s22.4,50,50,50s50-22.4,50-50S77.6,0,50,0L50,0z"/>
</g>
<g>
	<ellipse class="st1" cx="50" cy="50" rx="42.1" ry="41.4"/>
	<path class="st1" d="M50,10c22.5,0,40.7,18,40.7,40S72.4,90,50,90S9.3,72,9.3,50S27.5,10,50,10 M50,7.2C25.9,7.2,6.5,26.3,6.5,50
		S25.9,92.8,50,92.8S93.5,73.7,93.5,50S74.1,7.2,50,7.2L50,7.2z"/>
</g>
</svg>
