<?xml version="1.0" encoding="utf-8"?>
<!-- Generator: Adobe Illustrator 24.0.1, SVG Export Plug-In . SVG Version: 6.00 Build 0)  -->
<svg version="1.1" id="Layer_1" xmlns="http://www.w3.org/2000/svg" xmlns:xlink="http://www.w3.org/1999/xlink" x="0px" y="0px"
	 viewBox="0 0 100 100" style="enable-background:new 0 0 100 100;" xml:space="preserve">
<style type="text/css">
	.st0{fill:#FFFFFF;}
	.st1{fill:#3FA9F5;}
</style>
<g>
	<circle class="st0" cx="50.25" cy="46.75" r="20.5"/>
	<path class="st1" d="M50.25,26.75c11.03,0,20,8.97,20,20s-8.97,20-20,20s-20-8.97-20-20S39.22,26.75,50.25,26.75 M50.25,25.75
		c-11.6,0-21,9.4-21,21s9.4,21,21,21s21-9.4,21-21S61.85,25.75,50.25,25.75L50.25,25.75z"/>
</g>
<g>
	<circle class="st1" cx="50.25" cy="46.75" r="15"/>
	<path class="st1" d="M50.25,32.25c8,0,14.5,6.5,14.5,14.5s-6.5,14.5-14.5,14.5s-14.5-6.5-14.5-14.5S42.25,32.25,50.25,32.25
		 M50.25,31.25c-8.56,0-15.5,6.94-15.5,15.5s6.94,15.5,15.5,15.5s15.5-6.94,15.5-15.5S58.81,31.25,50.25,31.25L50.25,31.25z"/>
</g>
</svg>
